<svg xmlns="http://www.w3.org/2000/svg" width="200" height="200" viewBox="0 0 200 200" fill="none">
<path d="M 10.87,96.64 C 10.87,49.58 49.76,7.4 99.72,7.4 C 148.91,7.4 188.31,47.66 188.31,96.51 C 188.31,144.08 149.77,183.55 99.32,183.55 C 86.91,183.55 75.91,181.02 65.52,176.62 L 35.44,191.68 C 30.88,193.89 26.72,190.56 27.91,185.87 L 36.12,157.44 C 21.12,140.91 10.87,122.13 10.87,96.64 Z" fill="#96DFC0" stroke="#5A4869" stroke-width="3.7" stroke-miterlimit="10"/>
<path d="M 99.62,37.6 C 66.71,37.6 41.07,64.91 40.98,97.29 C 40.89,129.27 66.42,156.41 99.42,156.41 H 100.16 C 131.93,156.01 158.48,129.31 158.48,97.11 C 158.48,65.34 132.63,37.6 99.62,37.6 Z" fill="#FFC8A3" stroke="#5A4869" stroke-width="3.7" stroke-miterlimit="10"/>
<path d="M 75.12,80.41 C 70.91,80.41 69.34,86.11 69.34,89.71 C 69.34,93.84 71.16,98.29 75.06,98.29 C 79.47,98.29 80.94,92.81 80.94,89.45 C 80.94,85.76 78.89,80.41 75.12,80.41 Z" fill="#5A4869"/>
<path d="M 85.45,116.19 C 89.41,121.12 93.92,123.51 99.71,123.4 C 106.04,123.28 110.76,120.29 114.58,116.19" stroke="#5A4869" stroke-width="3.7" stroke-linecap="round" stroke-linejoin="round"/>
<path d="M 116.71,90.91 C 120.79,87.14 128.19,86.04 134.57,91.27" stroke="#5A4869" stroke-width="3.7" stroke-linecap="round" stroke-linejoin="round"/>
<path d="M 64.26,101.77 C 57.27,101.77 53.26,104.81 53.26,107.86 C 53.26,111.25 57.88,113.74 64.11,113.74 C 70.14,113.74 74.32,110.73 74.32,107.77 C 74.32,104.49 70.51,101.77 64.26,101.77 Z" fill="#F9918A"/>
<path d="M 135.97,101.77 C 128.98,101.77 125.82,105.27 125.82,107.68 C 125.82,111.07 130.12,113.56 136.35,113.56 C 142.71,113.56 146.47,110.51 146.47,107.81 C 146.47,104.53 142.5,101.77 135.97,101.77 Z" fill="#F9918A"/>
</svg>