<svg xmlns="http://www.w3.org/2000/svg" width="200" height="200" viewBox="0 0 200 200" fill="none">
<path d="M 100,7.08 C 51.63,7.08 11.29,46.61 11.29,96.41 C 11.29,119.98 20.64,140.64 36.53,157.56 L 27.73,185.06 C 26.12,190.34 29.45,193.73 34.88,191.56 L 66.15,176.54 C 76.53,181.04 86.71,183.47 98.98,183.47 C 147.86,183.47 188.71,143.94 188.71,96.22 C 188.71,49.11 149.71,7.08 100,7.08 Z" fill="#CBA6DA" stroke="#5E476B" stroke-width="3.7" stroke-linecap="round" stroke-linejoin="round"/>
<path d="M 99.81,36.82 C 66.75,36.82 41.04,64.14 41.04,96.82 C 41.04,128.87 66.88,155.68 99.69,155.68 C 132.26,155.68 158.58,129.19 158.58,96.82 C 158.58,64.71 132.46,36.82 99.81,36.82 Z" fill="#FAF1AE" stroke="#5E476B" stroke-width="3.7" stroke-linecap="round" stroke-linejoin="round"/>
<path d="M 73.71,76.59 C 66.93,76.59 63.96,82.99 63.96,86.82 C 63.96,93.01 68.96,96.82 73.71,96.82 C 79.68,96.82 83.78,91.56 83.78,86.94 C 83.78,81.29 79.58,76.59 73.71,76.59 Z" fill="#594165"/>
<path d="M 126.46,76.73 C 119.68,76.73 116.22,82.75 116.22,87.33 C 116.22,93.52 121.41,96.82 126.16,96.82 C 132.63,96.82 136.22,91.17 136.22,87.14 C 136.22,81.49 131.72,76.73 126.46,76.73 Z" fill="#594165"/>
<path d="M 77.11,80.13 C 74.45,80.13 73.78,82.06 73.78,83.48 C 73.78,85.73 75.61,86.86 77.11,86.86 C 79.28,86.86 80.61,84.93 80.61,83.41 C 80.61,81.39 78.99,80.13 77.11,80.13 Z" fill="white"/>
<path d="M 129.61,80.7 C 126.95,80.7 126.49,82.73 126.49,83.86 C 126.49,86.11 128.11,87.38 129.61,87.38 C 131.78,87.38 132.91,85.76 132.91,83.98 C 132.91,82.21 131.49,80.7 129.61,80.7 Z" fill="white"/>
<path d="M 63.78,99.42 C 56.81,99.42 53.39,102.61 53.39,105.46 C 53.39,108.89 57.82,111.14 64.01,111.14 C 70.62,111.14 74.31,107.95 74.31,105.58 C 74.31,102.03 70.74,99.42 63.78,99.42 Z" fill="#F0A8AD"/>
<path d="M 135.91,99.3 C 128.94,99.3 125.52,102.61 125.52,105.46 C 125.52,108.89 129.95,111.14 136.14,111.14 C 142.75,111.14 146.61,107.95 146.61,105.58 C 146.61,102.03 142.87,99.3 135.91,99.3 Z" fill="#F0A8AD"/>
<path d="M 82.97,109.61 C 82.09,109.61 82.18,110.75 82.22,111.21 C 83.36,120.45 91.21,127.58 100,127.58 C 109.11,127.58 117.11,120.01 118.11,110.72 C 118.18,110.08 117.81,109.61 117.23,109.61 H 82.97 Z" fill="#D45668" stroke="#594165" stroke-width="3.7" stroke-linecap="round" stroke-linejoin="round"/>
<path d="M 100.12,115.26 C 94.01,115.26 90.16,117.33 87.58,120.52 C 91.13,124.61 95.06,125.86 99.69,125.86 C 104.19,125.86 108.11,123.96 111.51,120.72 C 109.26,117.87 105.71,115.26 100.12,115.26 Z" fill="#F9959B"/>
</svg>